<?xml version="1.0" encoding="UTF-8"?>
<svg version="1.1" xmlns="http://www.w3.org/2000/svg" width="500" height="500">
<path d="M0 0 C3.9782774 0.0091412 7.95648752 -0.00496365 11.93475103 -0.01591969 C19.70599654 -0.0336138 27.47708664 -0.02990585 35.24833798 -0.01826912 C41.56978622 -0.00919895 47.89119121 -0.00802621 54.2126441 -0.01236439 C55.5673044 -0.01328379 55.5673044 -0.01328379 56.94933158 -0.01422176 C58.78454408 -0.01550079 60.61975657 -0.01679764 62.45496905 -0.01811212 C79.62374068 -0.02949124 96.79242658 -0.01644624 113.96118414 0.00508934 C128.66104434 0.02295789 143.36077813 0.01985303 158.06063604 0.0014143 C175.17213502 -0.02003972 192.28355905 -0.02839285 209.3950696 -0.01613665 C211.22315676 -0.01486258 213.05124393 -0.0136051 214.87933111 -0.01236439 C215.77855238 -0.01174729 216.67777365 -0.01113018 217.60424405 -0.01049438 C223.91082229 -0.00705505 230.21735259 -0.0128391 236.5239234 -0.0222826 C244.21996942 -0.03355449 251.91585247 -0.03035429 259.61188006 -0.00915962 C263.53106106 0.00128151 267.4499713 0.00559279 271.36914968 -0.00775623 C303.57746584 -0.10820711 330.87780187 5.32045541 354.54598761 28.52289867 C355.78348761 29.73139477 355.78348761 29.73139477 357.04598761 30.96430492 C377.31901689 51.71248333 384.71648235 76.24336552 384.67970037 104.69701672 C384.68196593 105.99354713 384.68423149 107.29007754 384.6865657 108.62589675 C384.69264545 112.20005099 384.69255465 115.7741817 384.69137132 119.34833992 C384.69116634 123.2128398 384.69669534 127.07733232 384.70142889 130.94182873 C384.70971507 138.50409546 384.71248281 146.0663544 384.71304127 153.6286253 C384.71351741 159.77957513 384.71557706 165.93052241 384.71874189 172.08147144 C384.72754305 189.54374035 384.73216213 207.00600312 384.73141142 224.46827426 C384.73135149 225.87867882 384.73135149 225.87867882 384.73129034 227.31757641 C384.73124946 228.25900223 384.73120858 229.20042806 384.73116646 230.17038194 C384.73076018 245.42062577 384.74032657 260.67084488 384.75442871 275.92108157 C384.76881458 291.60265442 384.77569767 307.28421524 384.77483493 322.96579486 C384.77450372 331.76063952 384.77721757 340.55545828 384.78801298 349.35029697 C384.79714714 356.83937734 384.7992694 364.32842005 384.79250356 371.81750359 C384.78925297 375.63303478 384.78912838 379.44849386 384.79785681 383.26401806 C384.80725212 387.41401994 384.80090774 391.563857 384.79322577 395.71386242 C384.79836933 396.90067016 384.80351289 398.0874779 384.80881232 399.31024951 C384.70716903 424.31703505 377.40922185 445.93576286 361.54598761 465.52289867 C361.04454229 466.17774242 360.54309698 466.83258617 360.02645636 467.50727367 C346.3361737 484.70889684 322.09670329 497.63636168 300.54598761 500.52289867 C290.67251262 501.22687018 280.74879937 501.07901416 270.85520983 501.04579735 C266.82512728 501.03666632 262.79511159 501.05075608 258.76504278 501.06171703 C250.89038988 501.07942176 243.01589023 501.07569839 235.14123154 501.06406647 C228.73632226 501.05500054 222.33145567 501.05382175 215.92654181 501.05816174 C215.01190928 501.05877467 214.09727675 501.0593876 213.15492809 501.06001911 C211.29636032 501.06129812 209.43779257 501.06259498 207.57922482 501.06390947 C190.18730243 501.0752917 172.79546463 501.06223868 155.40355611 501.04070801 C140.50893365 501.02283918 125.61443594 501.02594395 110.71981573 501.04438305 C93.38639606 501.06583154 76.05305037 501.07419328 58.71961927 501.06193399 C56.868224 501.06065992 55.01682871 501.05940243 53.16543341 501.05816174 C52.25472 501.05754463 51.34400658 501.05692753 50.4056958 501.05629173 C44.01500257 501.05285074 37.62435661 501.05864005 31.23367071 501.06807995 C23.43619671 501.07934565 15.63888358 501.07616445 7.8414278 501.05495697 C3.86972189 501.04450764 -0.10171664 501.04021896 -4.07342005 501.05355358 C-22.94375318 501.11164774 -40.02438463 500.90444236 -57.26651239 492.27289867 C-58.06710077 491.88086254 -58.86768915 491.48882641 -59.69253778 491.08491039 C-66.13423221 487.84937995 -71.93617809 484.18334642 -77.45401239 479.52289867 C-78.43627802 478.70176586 -79.41854364 477.88063305 -80.43057489 477.03461742 C-87.85453701 470.63172948 -93.82907469 463.5311134 -99.45401239 455.52289867 C-100.29899286 454.34534008 -100.29899286 454.34534008 -101.16104364 453.14399242 C-110.75631736 438.58651911 -114.75852012 421.06529394 -114.73489618 403.90198803 C-114.74007216 402.53150039 -114.74610089 401.16101575 -114.75290298 399.79053521 C-114.7689487 396.04327113 -114.77261683 392.29608386 -114.77409792 388.5487895 C-114.77781574 384.4994078 -114.79291905 380.45006518 -114.80636835 376.40070629 C-114.8334721 367.55300941 -114.84557549 358.70533074 -114.85438967 349.85759926 C-114.85992696 344.32436969 -114.86840408 338.79114705 -114.87739801 333.25792217 C-114.90177851 317.91435085 -114.9223759 302.57078505 -114.9291482 287.22719479 C-114.92958733 286.24611152 -114.93002646 285.26502826 -114.9304789 284.2542152 C-114.93091546 283.27088011 -114.93135201 282.28754503 -114.9318018 281.27441192 C-114.9326887 279.28204552 -114.93358183 277.28967913 -114.93448114 275.29731274 C-114.934924 274.30904544 -114.93536686 273.32077813 -114.93582314 272.30256334 C-114.94370812 256.31258492 -114.97858461 240.3227894 -115.02520019 224.33288154 C-115.07276 207.88515749 -115.09755803 191.43752493 -115.09988403 174.98973107 C-115.10171049 165.76757957 -115.11303523 156.54566621 -115.14952326 147.32358074 C-115.18050572 139.46566596 -115.19046137 131.60806289 -115.17404705 123.75009856 C-115.166296 119.74932298 -115.16778232 115.74917329 -115.19616175 111.74847698 C-115.41436075 79.06606903 -108.59209335 52.26636487 -85.39151239 28.30414867 C-61.48483458 4.61188052 -32.32220058 -0.11009193 0 0 Z " fill="#622BB1" transform="translate(115.45401239395142,-0.5228986740112305)"/>
<path d="M0 0 C77.88 0 155.76 0 236 0 C236 86.46 236 172.92 236 262 C235.34 262 234.68 262 234 262 C233.855625 263.093125 233.71125 264.18625 233.5625 265.3125 C232.68231449 271.082605 231.05784302 272.94215698 227 277 C226.649375 277.7425 226.29875 278.485 225.9375 279.25 C225 281 225 281 223.45550919 281.60185909 C219.8991677 282.17849103 216.3664965 282.13363301 212.77435303 282.12025452 C211.93789065 282.12110894 211.10142827 282.12196337 210.23961854 282.12284368 C207.43283598 282.12449265 204.626113 282.11898662 201.81933594 282.11352539 C199.80891929 282.11324337 197.79850253 282.11340155 195.78808594 282.1139679 C190.3256781 282.11425528 184.86329214 282.10836805 179.4008894 282.10139394 C173.69403888 282.09515061 167.98718788 282.09455582 162.28033447 282.09336853 C151.47150962 282.09025811 140.66269485 282.0820486 129.85387444 282.07201904 C117.5493013 282.06084894 105.24472769 282.05534519 92.94015074 282.05032361 C67.62676156 282.03986577 42.31338134 282.0222719 17 282 C17 281.34 17 280.68 17 280 C16.319375 280.103125 15.63875 280.20625 14.9375 280.3125 C10.73906378 279.86585785 7.9685366 277.96053516 5 275 C4.0625 272.1875 4.0625 272.1875 4 270 C3.34 270 2.68 270 2 270 C-0.69508428 264.98275685 -0.27223562 259.87435006 -0.24050903 254.33830261 C-0.24221788 253.25188911 -0.24392673 252.16547561 -0.24568737 251.04614049 C-0.24898618 247.39942732 -0.23797194 243.75289744 -0.22705078 240.10620117 C-0.22648675 237.49465947 -0.22680306 234.88311745 -0.22793579 232.27157593 C-0.2289842 226.64584131 -0.22271223 221.0201531 -0.21146011 215.39443016 C-0.19520207 207.26059869 -0.1899968 199.12678964 -0.18748413 190.99294368 C-0.18310751 177.7961457 -0.16979928 164.59937245 -0.15087891 151.40258789 C-0.13251927 138.58357871 -0.11838611 125.76457629 -0.10986328 112.94555664 C-0.10932729 112.14725833 -0.10879129 111.34896001 -0.10823905 110.52647084 C-0.10408018 104.28320022 -0.10016634 98.03992946 -0.09632993 91.79665864 C-0.07746453 61.19774972 -0.03722746 30.59890273 0 0 Z " fill="#FAF9FB" transform="translate(133,159)"/>
<path d="M0 0 C1.0498094 -0.00594224 2.09961881 -0.01188449 3.18124062 -0.0180068 C6.69247926 -0.03532462 10.20358108 -0.03839245 13.71485901 -0.04138184 C16.23490183 -0.05064191 18.75494186 -0.06069173 21.27497864 -0.07147217 C28.11579327 -0.09768224 34.95656304 -0.11067575 41.79741931 -0.11949348 C46.07119983 -0.12502809 50.34497136 -0.13350432 54.6187458 -0.14250183 C66.45971705 -0.16687318 78.30068113 -0.18747755 90.1416769 -0.19425201 C90.89859465 -0.19469115 91.6555124 -0.19513028 92.43536705 -0.19558272 C93.19404831 -0.19601927 93.95272957 -0.19645583 94.73440117 -0.19690561 C96.27166967 -0.19779253 97.80893817 -0.19868566 99.34620667 -0.19958496 C100.10873767 -0.20002782 100.87126867 -0.20047068 101.65690667 -0.20092696 C114.01839781 -0.20882665 126.37965344 -0.24375206 138.74105357 -0.29030401 C151.44266258 -0.33775007 164.14415339 -0.36265641 176.84585243 -0.36498785 C183.97339957 -0.36681984 191.10063937 -0.37828626 198.22810173 -0.41462708 C204.93004976 -0.44867932 211.6313151 -0.45192085 218.33335876 -0.43434906 C220.79239526 -0.43280619 223.25146289 -0.44152188 225.71042061 -0.46126556 C229.06887442 -0.48664992 232.4252522 -0.47498519 235.78369141 -0.45410156 C236.75558755 -0.47021437 237.72748369 -0.48632718 238.72883123 -0.50292826 C245.49715035 -0.40456038 249.69202201 1.40566442 254.45533752 6.28088379 C257.80665351 11.81099159 257.93595134 17.02043081 257.95924377 23.30822754 C257.96922897 24.25597549 257.97921417 25.20372345 257.98950195 26.18019104 C258.00462794 28.17619486 258.01172946 30.17227389 258.01124573 32.16833496 C258.0178118 35.20647991 258.07236339 38.24136221 258.12916565 41.27893066 C258.13796851 43.22618521 258.14392219 45.17345514 258.14674377 47.12072754 C258.16830032 48.01992416 258.18985687 48.91912079 258.21206665 49.8455658 C258.13991442 56.5505271 256.13191565 60.49083663 251.45533752 65.28088379 C247.15994924 68.45128943 243.32490461 69.40365444 238.05270863 69.41231155 C236.73236424 69.41807327 236.73236424 69.41807327 235.38534623 69.42395139 C234.42261771 69.42308491 233.45988918 69.42221842 232.46798706 69.42132568 C231.44186426 69.42429681 230.41574146 69.42726793 229.35852402 69.43032908 C225.90942306 69.43902224 222.46035679 69.44052486 219.01124573 69.4420166 C216.54253057 69.44664436 214.07381614 69.45166896 211.60510254 69.45706177 C204.89007191 69.47019235 198.17505487 69.47666882 191.46001458 69.48107243 C187.26547828 69.48383639 183.07094428 69.48807405 178.87640953 69.4925766 C167.25859503 69.50476889 155.64078237 69.51506791 144.02296162 69.51845169 C142.90781138 69.51878104 142.90781138 69.51878104 141.77013285 69.51911704 C141.02493749 69.51933532 140.27974213 69.5195536 139.5119651 69.51977849 C138.00195968 69.52022195 136.49195427 69.52066852 134.98194885 69.52111816 C134.23293673 69.52133959 133.48392461 69.52156102 132.71221515 69.52178916 C120.5808516 69.52573552 108.44954817 69.54318477 96.31820784 69.56647769 C83.85738861 69.59020968 71.39659953 69.6026544 58.93575734 69.60381961 C51.94181143 69.60473539 44.94794384 69.61046321 37.95401955 69.62863922 C31.37374619 69.64568013 24.79359506 69.647279 18.21329689 69.63850021 C15.79984642 69.63772942 13.38638798 69.6420781 10.97295761 69.65195847 C7.67433033 69.6646693 4.37623 69.65880536 1.0776062 69.64837646 C-0.34975618 69.66046107 -0.34975618 69.66046107 -1.80595416 69.67278981 C-8.51697955 69.62328105 -15.45154136 68.95934736 -20.70091248 64.41369629 C-21.14434998 63.75111816 -21.58778748 63.08854004 -22.04466248 62.40588379 C-22.50872498 61.74846191 -22.97278748 61.09104004 -23.45091248 60.41369629 C-26.04598989 55.35329534 -25.71937374 49.80488961 -25.74778748 44.25354004 C-25.75348755 43.38700302 -25.75918762 42.520466 -25.76506042 41.62767029 C-25.77448181 39.79960338 -25.78103299 37.97151972 -25.78489685 36.14343262 C-25.79461755 33.35626553 -25.82567379 30.56983167 -25.85716248 27.78283691 C-25.86369195 26.00224231 -25.86894264 24.22164246 -25.87278748 22.44104004 C-25.88513428 21.61274185 -25.89748108 20.78444366 -25.91020203 19.93104553 C-25.88583079 13.5624246 -24.39163294 9.53829214 -20.29466248 4.53088379 C-14.30568018 -0.36919264 -7.39539545 -0.01315635 0 0 Z " fill="#FBFAFB" transform="translate(134.54466247558594,64.7191162109375)"/>
<path d="M0 0 C2.11282689 -0.00221522 4.22515364 -0.02052133 6.33789062 -0.03930664 C7.69205553 -0.04223643 9.04622288 -0.044224 10.40039062 -0.04516602 C11.61452637 -0.0492749 12.82866211 -0.05338379 14.07958984 -0.05761719 C17.08847838 0.17507705 18.78408797 0.4383711 21.22070312 2.18530273 C22.14757637 4.96592248 22.34263709 6.60582132 22.33422852 9.47314453 C22.33410767 10.34579956 22.33398682 11.21845459 22.3338623 12.11755371 C22.32874634 13.03065308 22.32363037 13.94375244 22.31835938 14.88452148 C22.31735229 15.72680298 22.31634521 16.56908447 22.31530762 17.43688965 C22.31007697 20.58220787 22.29611569 23.72750667 22.28320312 26.87280273 C22.26257813 33.90592773 22.24195313 40.93905273 22.22070312 48.18530273 C37.07070313 48.18530273 51.92070312 48.18530273 67.22070312 48.18530273 C68.98993214 51.72376076 69.47172612 52.71067819 69.49536133 56.33959961 C69.50489334 57.14723755 69.51442535 57.95487549 69.52424622 58.7869873 C69.5228791 60.08243469 69.5228791 60.08243469 69.52148438 61.40405273 C69.5257695 62.29894409 69.53005463 63.19383545 69.5344696 64.11584473 C69.54020521 66.0053625 69.54071883 67.89490234 69.53637695 69.78442383 C69.53321446 72.67494306 69.55669419 75.56444105 69.58203125 78.45483398 C69.58430407 80.29207228 69.58500782 82.12931332 69.58398438 83.96655273 C69.59319412 84.83018433 69.60240387 85.69381592 69.6118927 86.58361816 C69.58636423 89.89369319 69.42602549 92.60498111 68.31787109 95.73706055 C64.67343925 98.25379741 60.60864172 97.6698027 56.30273438 97.57592773 C55.33035324 97.57026794 54.35797211 97.56460815 53.35612488 97.55877686 C50.24798512 97.53637202 47.14099489 97.48616754 44.03320312 97.43530273 C41.92709997 97.41524307 39.82097877 97.39699137 37.71484375 97.38061523 C32.54968676 97.33649366 27.38538988 97.26743733 22.22070312 97.18530273 C22.25212402 99.15321777 22.25212402 99.15321777 22.28417969 101.16088867 C22.35658283 106.02861617 22.40250426 110.89629608 22.44042969 115.7644043 C22.46054438 117.87125655 22.4878398 119.97805299 22.52246094 122.0847168 C22.57098481 125.1131772 22.59367329 128.14089952 22.61132812 131.16967773 C22.63197327 132.11147888 22.65261841 133.05328003 22.67388916 134.02362061 C22.67519538 137.83091391 22.64855923 140.41815233 20.7746582 143.77807617 C16.89524211 145.91563036 13.33044186 145.75731575 8.96679688 145.71655273 C8.06953384 145.72037964 7.17227081 145.72420654 6.24781799 145.72814941 C4.35408402 145.73086768 2.46031245 145.72351245 0.56665039 145.70678711 C-2.33532096 145.68535057 -5.2348237 145.70660388 -8.13671875 145.73217773 C-9.97721901 145.72953493 -11.81771774 145.72441094 -13.65820312 145.71655273 C-14.526996 145.72464966 -15.39578888 145.73274658 -16.29090881 145.74108887 C-17.50247902 145.7221759 -17.50247902 145.7221759 -18.73852539 145.70288086 C-19.44815933 145.69969849 -20.15779327 145.69651611 -20.88893127 145.6932373 C-22.77929688 145.18530273 -22.77929688 145.18530273 -24.51055908 143.43377686 C-25.9277358 140.92223728 -26.14452179 139.55139282 -26.11987305 136.69213867 C-26.11953316 135.37122223 -26.11953316 135.37122223 -26.1191864 134.02362061 C-26.10370255 133.08181946 -26.08821869 132.14001831 -26.07226562 131.16967773 C-26.06802078 130.19871155 -26.06377594 129.22774536 -26.05940247 128.22735596 C-26.0426254 125.12972142 -26.00497459 122.03274024 -25.96679688 118.93530273 C-25.9517488 116.83374964 -25.93806061 114.73218633 -25.92578125 112.63061523 C-25.89272498 107.48192644 -25.84094895 102.33372532 -25.77929688 97.18530273 C-27.75506714 97.20101318 -27.75506714 97.20101318 -29.77075195 97.21704102 C-34.65158375 97.25320556 -39.53240366 97.27619033 -44.41333008 97.29516602 C-46.5269571 97.30523168 -48.64057017 97.3188853 -50.75415039 97.33618164 C-53.7899113 97.36040503 -56.8254883 97.37178011 -59.86132812 97.38061523 C-61.28177177 97.39609909 -61.28177177 97.39609909 -62.73091125 97.41189575 C-63.61159775 97.41204681 -64.49228424 97.41219788 -65.3996582 97.41235352 C-66.56214836 97.41901535 -66.56214836 97.41901535 -67.74812317 97.42581177 C-69.77929688 97.18530273 -69.77929688 97.18530273 -72.77929688 95.18530273 C-73.15351868 93.33253479 -73.15351868 93.33253479 -73.15161133 91.05859375 C-73.15784012 90.20753555 -73.16406891 89.35647736 -73.17048645 88.47962952 C-73.1612767 87.55879074 -73.15206696 86.63795197 -73.14257812 85.68920898 C-73.14307663 84.74472397 -73.14357513 83.80023895 -73.14408875 82.82713318 C-73.14174561 80.82727966 -73.13200303 78.82742334 -73.11547852 76.82763672 C-73.09191871 73.76364794 -73.09491168 70.70053072 -73.1015625 67.63647461 C-73.09598483 65.6957142 -73.08887438 63.75495747 -73.08007812 61.81420898 C-73.08098953 60.89539444 -73.08190094 59.9765799 -73.08283997 59.02992249 C-73.07330795 58.17571213 -73.06377594 57.32150177 -73.05395508 56.44140625 C-73.04934769 55.69021011 -73.0447403 54.93901398 -73.03999329 54.16505432 C-72.77929688 52.18530273 -72.77929688 52.18530273 -70.77929688 49.18530273 C-68.83041382 48.82453918 -68.83041382 48.82453918 -66.42138672 48.84472656 C-65.52060394 48.84495316 -64.61982117 48.84517975 -63.69174194 48.84541321 C-62.71774445 48.86089706 -61.74374695 48.87638092 -60.74023438 48.89233398 C-59.74424225 48.89657883 -58.74825012 48.90082367 -57.72207642 48.90519714 C-54.53254463 48.92202593 -51.34363854 48.95968598 -48.15429688 48.99780273 C-45.99545182 49.01284413 -43.83659688 49.02653348 -41.67773438 49.03881836 C-36.37804075 49.07194307 -31.0787135 49.12218377 -25.77929688 49.18530273 C-25.79500732 47.2173877 -25.79500732 47.2173877 -25.81103516 45.2097168 C-25.84723735 40.34190602 -25.87019823 35.47410714 -25.88916016 30.60620117 C-25.89921721 28.49940998 -25.91286455 26.39263274 -25.93017578 24.28588867 C-25.95443688 21.25753332 -25.96578296 18.22936254 -25.97460938 15.20092773 C-25.98493195 14.25912659 -25.99525452 13.31732544 -26.00588989 12.34698486 C-26.00611649 11.02606842 -26.00611649 11.02606842 -26.00634766 9.6784668 C-26.01078888 8.90569397 -26.0152301 8.13292114 -26.01980591 7.33673096 C-25.74496842 4.878224 -25.08824476 3.27615086 -23.77929688 1.18530273 C-21.95458984 0.58251953 -21.95458984 0.58251953 -19.64648438 0.44702148 C-18.75026367 0.3920752 -17.85404297 0.33712891 -16.93066406 0.28051758 C-11.28624406 0.10997808 -5.64681203 -0.00066402 0 0 Z " fill="#632BB1" transform="translate(252.779296875,226.814697265625)"/>
<path d="M0 0 C0.91478164 -0.00384115 1.82956328 -0.00768229 2.77206558 -0.01163983 C3.78362199 -0.01077335 4.7951784 -0.00990687 5.83738804 -0.00901413 C6.90687091 -0.01198525 7.97635378 -0.01495637 9.07824522 -0.01801753 C12.68575719 -0.02673529 16.2932361 -0.02821536 19.90075779 -0.02970505 C22.47743393 -0.03433098 25.05410939 -0.03935533 27.63078403 -0.04475021 C34.64717046 -0.0583436 41.66355117 -0.06435962 48.67994857 -0.06876087 C53.05835291 -0.07152121 57.43675504 -0.07575814 61.81515789 -0.08026505 C73.93044839 -0.09245829 86.04573712 -0.10275797 98.16103363 -0.10614014 C98.93672285 -0.1063597 99.71241207 -0.10657927 100.51160702 -0.10680549 C101.28918082 -0.10702377 102.06675461 -0.10724204 102.86789125 -0.10746694 C104.44362541 -0.10791041 106.01935957 -0.10835697 107.59509373 -0.10880661 C108.37671686 -0.10902804 109.15834 -0.10924947 109.96364868 -0.10947761 C122.63591323 -0.11342776 135.30812035 -0.13088813 147.98036271 -0.15416613 C160.98123548 -0.1778557 173.9820794 -0.19034087 186.98297411 -0.19150805 C194.28639513 -0.19242609 201.5897413 -0.19821068 208.89314175 -0.21632767 C215.75901066 -0.23329898 222.62473501 -0.23499927 229.49061871 -0.22618866 C232.01624144 -0.22541443 234.54187162 -0.22981133 237.06747532 -0.23964691 C240.50405452 -0.25224959 243.94012001 -0.24655339 247.37669468 -0.23606491 C248.38602037 -0.24412132 249.39534606 -0.25217772 250.43525738 -0.26047826 C251.81134146 -0.25059349 251.81134146 -0.25059349 253.21522522 -0.24050903 C254.00889573 -0.24110612 254.80256623 -0.24170321 255.62028736 -0.24231839 C258.15996034 0.22064708 259.05178482 1.1744827 260.67053318 3.13142776 C260.12282174 3.13104804 259.57511031 3.13066832 259.01080155 3.1302771 C226.51845053 3.10787843 194.02610156 3.09073081 161.53374459 3.08036244 C157.62865718 3.07911179 153.72356979 3.07781746 149.8184824 3.07649612 C148.6523783 3.07610266 148.6523783 3.07610266 147.46271655 3.07570124 C134.89019368 3.07135496 122.3176754 3.06347314 109.74515525 3.05427497 C96.83583592 3.04490945 83.926519 3.03936602 71.01719642 3.03733927 C63.05733219 3.03597006 55.09748095 3.03165212 47.13762072 3.0235113 C41.02461207 3.0175794 34.91161324 3.01697613 28.7986021 3.01832008 C26.29772773 3.01804567 23.79685285 3.01606584 21.29598141 3.01222229 C17.87135539 3.00721855 14.44678411 3.00845399 11.02215672 3.01117325 C9.5512816 3.00680399 9.5512816 3.00680399 8.05069184 3.00234646 C1.2160724 3.01693081 -5.52737857 3.47587861 -12.32946682 4.13142776 C-12.32946682 3.47142776 -12.32946682 2.81142776 -12.32946682 2.13142776 C-11.38071682 1.98705276 -10.43196682 1.84267776 -9.45446682 1.69392776 C-0.04414225 0.00006934 -0.04414225 0.00006934 0 0 Z " fill="#614A82" transform="translate(124.32946681976318,62.86857223510742)"/>
<path d="M0 0 C2.11282689 -0.00221522 4.22515364 -0.02052133 6.33789062 -0.03930664 C7.69205553 -0.04223643 9.04622288 -0.044224 10.40039062 -0.04516602 C11.61452637 -0.0492749 12.82866211 -0.05338379 14.07958984 -0.05761719 C17.08847838 0.17507705 18.78408797 0.4383711 21.22070312 2.18530273 C22.14757637 4.96592248 22.34263709 6.60582132 22.33422852 9.47314453 C22.33410767 10.34579956 22.33398682 11.21845459 22.3338623 12.11755371 C22.32874634 13.03065308 22.32363037 13.94375244 22.31835938 14.88452148 C22.31735229 15.72680298 22.31634521 16.56908447 22.31530762 17.43688965 C22.31007697 20.58220787 22.29611569 23.72750667 22.28320312 26.87280273 C22.26257813 33.90592773 22.24195313 40.93905273 22.22070312 48.18530273 C37.07070313 48.18530273 51.92070312 48.18530273 67.22070312 48.18530273 C68.98993214 51.72376076 69.47172612 52.71067819 69.49536133 56.33959961 C69.50489334 57.14723755 69.51442535 57.95487549 69.52424622 58.7869873 C69.52333481 59.6506189 69.5224234 60.51425049 69.52148438 61.40405273 C69.5257695 62.29894409 69.53005463 63.19383545 69.5344696 64.11584473 C69.54020521 66.0053625 69.54071883 67.89490234 69.53637695 69.78442383 C69.53321446 72.67494306 69.55669419 75.56444105 69.58203125 78.45483398 C69.58430407 80.29207228 69.58500782 82.12931332 69.58398438 83.96655273 C69.59319412 84.83018433 69.60240387 85.69381592 69.6118927 86.58361816 C69.58636423 89.89369319 69.42602549 92.60498111 68.31787109 95.73706055 C64.67343925 98.25379741 60.60864172 97.6698027 56.30273438 97.57592773 C55.33035324 97.57026794 54.35797211 97.56460815 53.35612488 97.55877686 C50.24798512 97.53637202 47.14099489 97.48616754 44.03320312 97.43530273 C41.92709997 97.41524307 39.82097877 97.39699137 37.71484375 97.38061523 C32.54968676 97.33649366 27.38538988 97.26743733 22.22070312 97.18530273 C22.22292374 97.73209686 22.22514435 98.27889099 22.22743225 98.84225464 C22.24950998 104.51958566 22.26462017 110.19690453 22.27563477 115.87426758 C22.28067184 117.99471532 22.28750171 120.11515958 22.29614258 122.2355957 C22.30823547 125.27873595 22.3139376 128.32183039 22.31835938 131.36499023 C22.32352066 132.31711395 22.32868195 133.26923767 22.33399963 134.25021362 C22.33407516 135.13097565 22.3341507 136.01173767 22.33422852 136.91918945 C22.33644913 137.6964035 22.33866974 138.47361755 22.34095764 139.27438354 C22.22070312 141.18530273 22.22070312 141.18530273 21.22070312 143.18530273 C20.56070313 142.85530273 19.90070313 142.52530273 19.22070312 142.18530273 C19.33813336 135.81309194 19.4629676 129.44105745 19.59301758 123.0690918 C19.63640231 120.90018017 19.67807474 118.7312336 19.71801758 116.56225586 C19.77563452 113.44951838 19.83935351 110.33695738 19.90429688 107.22436523 C19.92100937 106.25036774 19.93772186 105.27637024 19.9549408 104.27285767 C19.97488602 103.37207489 19.99483124 102.47129211 20.01538086 101.54321289 C20.03092514 100.74823395 20.04646942 99.953255 20.06248474 99.13418579 C20.22070312 97.18530273 20.22070312 97.18530273 21.22070312 95.18530273 C43.99070312 94.69030273 43.99070312 94.69030273 67.22070312 94.18530273 C66.89070313 79.99530273 66.56070313 65.80530273 66.22070312 51.18530273 C51.37070312 50.85530273 36.52070313 50.52530273 21.22070312 50.18530273 C20.90820312 28.37280273 20.90820312 28.37280273 20.83276367 21.49462891 C20.8004816 19.69748846 20.767109 17.90036712 20.73242188 16.10327148 C20.72617798 15.16858032 20.71993408 14.23388916 20.71350098 13.27087402 C20.69356079 12.37791626 20.67362061 11.4849585 20.65307617 10.56494141 C20.63642159 9.40245125 20.63642159 9.40245125 20.61943054 8.21647644 C20.10940539 5.61833639 19.35033337 4.73369972 17.22070312 3.18530273 C15.31371287 2.71782861 15.31371287 2.71782861 13.20825195 2.75292969 C12.00734673 2.72323845 12.00734673 2.72323845 10.78218079 2.69294739 C9.49297981 2.6833625 9.49297981 2.6833625 8.17773438 2.67358398 C7.29413742 2.65563278 6.41054047 2.63768158 5.50016785 2.6191864 C2.67789483 2.56500278 -0.14420832 2.53116213 -2.96679688 2.49780273 C-4.88023202 2.46463674 -6.79364471 2.43014776 -8.70703125 2.39428711 C-13.39766403 2.30927174 -18.08824572 2.24249911 -22.77929688 2.18530273 C-22.77929688 2.84530273 -22.77929688 3.50530273 -22.77929688 4.18530273 C-23.43929687 3.85530273 -24.09929687 3.52530273 -24.77929688 3.18530273 C-24.44929687 2.52530273 -24.11929688 1.86530273 -23.77929688 1.18530273 C-16.16335649 -0.61155965 -7.78597095 -0.00091557 0 0 Z " fill="#7554A7" transform="translate(252.779296875,226.814697265625)"/>
<path d="M0 0 C1.11758949 0.32517829 2.23517899 0.65035658 3.38663483 0.98538876 C8.23216055 2.18888199 12.84205357 2.27037911 17.81384277 2.23377991 C19.25273983 2.23528483 19.25273983 2.23528483 20.72070551 2.23682016 C23.9200075 2.23776916 27.1190872 2.22445413 30.31835938 2.21118164 C32.61867202 2.20897922 34.91898567 2.20767469 37.21929932 2.2071991 C42.16723946 2.20426892 47.11511335 2.19503189 52.06303406 2.18089485 C59.89801958 2.15858418 67.73298066 2.15053053 75.56799316 2.14439392 C86.56357286 2.13461961 97.55912571 2.1179561 108.5546875 2.09594727 C109.25175161 2.09455395 109.94881571 2.09316064 110.66700298 2.0917251 C111.36487774 2.09032957 112.06275251 2.08893404 112.781775 2.08749622 C122.65529508 2.06776656 132.52881607 2.04991873 142.40234375 2.03442383 C143.44301783 2.03278755 143.44301783 2.03278755 144.50471562 2.03111822 C156.11252995 2.01303438 167.72034708 1.99910405 179.32816935 1.98725218 C187.10457529 1.97888122 194.88094449 1.96489211 202.65733242 1.94627964 C207.51351342 1.93557135 212.36969412 1.92902947 217.22588348 1.92347908 C219.46385291 1.92003361 221.70182049 1.91484757 223.93978119 1.90771103 C236.00602381 1.87010936 247.96778864 2.03043261 260 3 C260 3.33 260 3.66 260 4 C174.86 4 89.72 4 2 4 C1.34 2.68 0.68 1.36 0 0 Z " fill="#9F79DA" transform="translate(117,131)"/>
<path d="M0 0 C1.94888306 -0.36076355 1.94888306 -0.36076355 4.35791016 -0.34057617 C5.25869293 -0.34034958 6.15947571 -0.34012299 7.08755493 -0.33988953 C8.06155243 -0.32440567 9.03554993 -0.30892181 10.0390625 -0.29296875 C11.03505463 -0.28872391 12.03104675 -0.28447906 13.05722046 -0.28010559 C16.24675225 -0.2632768 19.43565833 -0.22561676 22.625 -0.1875 C24.78384506 -0.1724586 26.9427 -0.15876925 29.1015625 -0.14648438 C34.40125612 -0.11335967 39.70058337 -0.06311896 45 0 C45 0.33 45 0.66 45 1 C30.48 1 15.96 1 1 1 C0.11434414 3.65696758 -0.1450262 5.28190083 -0.20532227 8.01245117 C-0.22526749 8.81305466 -0.24521271 9.61365814 -0.26576233 10.43852234 C-0.28247482 11.29798965 -0.29918732 12.15745697 -0.31640625 13.04296875 C-0.33718735 13.9265657 -0.35796844 14.81016266 -0.37937927 15.72053528 C-0.44475754 18.54277785 -0.50370528 21.36511335 -0.5625 24.1875 C-0.60569637 26.10092106 -0.64931102 28.01433273 -0.69335938 29.92773438 C-0.80042695 34.61839437 -0.90172752 39.30914783 -1 44 C1.85230666 44.80675273 4.42493709 45.1401306 7.38549805 45.18945312 C8.67154182 45.21452942 8.67154182 45.21452942 9.98356628 45.2401123 C10.9003566 45.25368774 11.81714691 45.26726318 12.76171875 45.28125 C14.18131645 45.30886414 14.18131645 45.30886414 15.6295929 45.33703613 C19.67718248 45.41570186 23.72493336 45.48369951 27.77270508 45.55224609 C30.72746411 45.60381422 33.68207314 45.66110115 36.63671875 45.71875 C38.02101326 45.73911316 38.02101326 45.73911316 39.43327332 45.7598877 C40.70513237 45.78496399 40.70513237 45.78496399 42.00268555 45.81054688 C43.12709297 45.82933899 43.12709297 45.82933899 44.2742157 45.84851074 C46 46 46 46 47 47 C47.0928726 48.41225046 47.11746772 49.82908934 47.11352539 51.24438477 C47.11344986 52.14524307 47.11337433 53.04610138 47.11329651 53.97425842 C47.10813522 54.95341721 47.10297394 55.93257599 47.09765625 56.94140625 C47.0962413 57.93881332 47.09482635 58.9362204 47.09336853 59.96385193 C47.08775114 63.16343124 47.07519571 66.36294169 47.0625 69.5625 C47.05748724 71.72591045 47.05292395 73.88932199 47.04882812 76.05273438 C47.03777607 81.36851325 47.02102104 86.68425171 47 92 C47.99 92.495 47.99 92.495 49 93 C49 93.33 49 93.66 49 94 C68.8 94.495 68.8 94.495 89 95 C89 95.33 89 95.66 89 96 C83.21595259 96.09880115 77.43239516 96.1714363 71.64770508 96.21972656 C69.6795191 96.23985481 67.71139301 96.26716019 65.7434082 96.30175781 C62.9160282 96.35022311 60.08943799 96.37295618 57.26171875 96.390625 C56.38037766 96.41127014 55.49903656 96.43191528 54.59098816 96.45318604 C53.3600518 96.45363922 53.3600518 96.45363922 52.10424805 96.45410156 C51.38254929 96.46298401 50.66085052 96.47186646 49.9172821 96.48101807 C48 96 48 96 46.26477051 94.25244141 C44.85374392 91.7395312 44.63478927 90.3644442 44.65942383 87.50683594 C44.65976372 86.18591949 44.65976372 86.18591949 44.66011047 84.83831787 C44.67559433 83.89651672 44.69107819 82.95471558 44.70703125 81.984375 C44.71127609 81.01340881 44.71552094 80.04244263 44.71989441 79.04205322 C44.73667147 75.94441869 44.77432228 72.84743751 44.8125 69.75 C44.82754808 67.6484469 44.84123627 65.5468836 44.85351562 63.4453125 C44.88657189 58.29662371 44.93834792 53.14842259 45 48 C43.02422974 48.01571045 43.02422974 48.01571045 41.00854492 48.03173828 C36.12771313 48.06790283 31.24689321 48.09088759 26.3659668 48.10986328 C24.25233978 48.11992894 22.1387267 48.13358257 20.02514648 48.15087891 C16.98938558 48.1751023 13.95380857 48.18647738 10.91796875 48.1953125 C9.4975251 48.21079636 9.4975251 48.21079636 8.04838562 48.22659302 C7.16769913 48.22674408 6.28701263 48.22689514 5.37963867 48.22705078 C4.60464523 48.231492 3.82965179 48.23593323 3.03117371 48.24050903 C1 48 1 48 -2 46 C-2.3742218 44.14723206 -2.3742218 44.14723206 -2.37231445 41.87329102 C-2.37854324 41.02223282 -2.38477203 40.17117462 -2.39118958 39.29432678 C-2.38197983 38.37348801 -2.37277008 37.45264923 -2.36328125 36.50390625 C-2.36377975 35.55942123 -2.36427826 34.61493622 -2.36479187 33.64183044 C-2.36244873 31.64197692 -2.35270615 29.64212061 -2.33618164 27.64233398 C-2.31262184 24.57834521 -2.31561481 21.51522798 -2.32226562 18.45117188 C-2.31668795 16.51041147 -2.30957751 14.56965474 -2.30078125 12.62890625 C-2.30169266 11.71009171 -2.30260406 10.79127716 -2.30354309 9.84461975 C-2.29401108 8.99040939 -2.28447906 8.13619904 -2.2746582 7.25610352 C-2.27005081 6.50490738 -2.26544342 5.75371124 -2.26069641 4.97975159 C-2 3 -2 3 0 0 Z " fill="#7555A4" transform="translate(182,276)"/>
<path d="M0 0 C0.33 0.66 0.66 1.32 1 2 C0 4 0 4 -2.40998268 5.10996819 C-7.14522433 6.28392233 -11.57997739 6.26944261 -16.4402771 6.24050903 C-17.49079305 6.24221788 -18.54130901 6.24392673 -19.62365878 6.24568737 C-23.14289274 6.24898098 -26.66193595 6.2379805 -30.18115234 6.22705078 C-32.70417272 6.22648664 -35.22719343 6.22680328 -37.75021362 6.22793579 C-43.18167929 6.22839119 -48.61308355 6.22271923 -54.04453659 6.21146011 C-61.89745034 6.19519206 -69.75034087 6.18999577 -77.60326965 6.18748413 C-90.34473853 6.18310908 -103.08618176 6.16980512 -115.82763672 6.15087891 C-128.20328646 6.1325152 -140.57892923 6.1183611 -152.95458984 6.10986328 C-153.71768437 6.10933783 -154.4807789 6.10881239 -155.2669975 6.10827102 C-159.09529589 6.1056609 -162.92359433 6.1031335 -166.75189281 6.10064721 C-198.50128067 6.07992062 -230.25063635 6.04455136 -262 6 C-262 5.67 -262 5.34 -262 5 C-178.18 5 -94.36 5 -8 5 C-8 4.34 -8 3.68 -8 3 C-5.36 2.01 -2.72 1.02 0 0 Z " fill="#703DBE" transform="translate(385,130)"/>
<path d="M0 0 C2.11282689 -0.00221522 4.22515364 -0.02052133 6.33789062 -0.03930664 C7.69205553 -0.04223643 9.04622288 -0.044224 10.40039062 -0.04516602 C11.61452637 -0.0492749 12.82866211 -0.05338379 14.07958984 -0.05761719 C17.08847838 0.17507705 18.78408797 0.4383711 21.22070312 2.18530273 C22.14757637 4.96592248 22.34263709 6.60582132 22.33422852 9.47314453 C22.33410767 10.34579956 22.33398682 11.21845459 22.3338623 12.11755371 C22.32874634 13.03065308 22.32363037 13.94375244 22.31835938 14.88452148 C22.31735229 15.72680298 22.31634521 16.56908447 22.31530762 17.43688965 C22.31007697 20.58220787 22.29611569 23.72750667 22.28320312 26.87280273 C22.26257813 33.90592773 22.24195313 40.93905273 22.22070312 48.18530273 C37.07070313 48.18530273 51.92070312 48.18530273 67.22070312 48.18530273 C67.71570313 50.16530273 67.71570313 50.16530273 68.22070312 52.18530273 C67.56070313 51.85530273 66.90070313 51.52530273 66.22070312 51.18530273 C64.77122383 51.06762801 63.31676317 51.00841005 61.86279297 50.97998047 C60.96201019 50.96003525 60.06122742 50.94009003 59.13314819 50.91954041 C58.1591507 50.90282791 57.1851532 50.88611542 56.18164062 50.86889648 C54.68765244 50.83772484 54.68765244 50.83772484 53.16348267 50.80592346 C49.97429459 50.74041232 46.78502255 50.68153569 43.59570312 50.62280273 C41.43684019 50.57961901 39.27798582 50.53600477 37.11914062 50.49194336 C31.81975083 50.38472937 26.52027707 50.28296589 21.22070312 50.18530273 C21.20612061 48.86812256 21.19153809 47.55094238 21.17651367 46.19384766 C21.11859599 41.31271036 21.04136277 36.43203756 20.95825195 31.55126953 C20.92497185 29.43773937 20.8969496 27.32411968 20.87426758 25.21044922 C20.8407784 22.17433468 20.78846548 19.13904298 20.73242188 16.10327148 C20.72603195 15.15630905 20.71964203 14.20934662 20.71305847 13.23368835 C20.69326431 12.35300186 20.67347015 11.47231537 20.65307617 10.56494141 C20.63642159 9.40245125 20.63642159 9.40245125 20.61943054 8.21647644 C20.10940539 5.61833639 19.35033337 4.73369972 17.22070312 3.18530273 C15.31371287 2.71782861 15.31371287 2.71782861 13.20825195 2.75292969 C12.00734673 2.72323845 12.00734673 2.72323845 10.78218079 2.69294739 C9.49297981 2.6833625 9.49297981 2.6833625 8.17773438 2.67358398 C7.29413742 2.65563278 6.41054047 2.63768158 5.50016785 2.6191864 C2.67789483 2.56500278 -0.14420832 2.53116213 -2.96679688 2.49780273 C-4.88023202 2.46463674 -6.79364471 2.43014776 -8.70703125 2.39428711 C-13.39766403 2.30927174 -18.08824572 2.24249911 -22.77929688 2.18530273 C-22.77929688 2.84530273 -22.77929688 3.50530273 -22.77929688 4.18530273 C-23.43929687 3.85530273 -24.09929687 3.52530273 -24.77929688 3.18530273 C-24.44929687 2.52530273 -24.11929688 1.86530273 -23.77929688 1.18530273 C-16.16335649 -0.61155965 -7.78597095 -0.00091557 0 0 Z " fill="#9D78D6" transform="translate(252.779296875,226.814697265625)"/>
<path d="M0 0 C0.99 0 1.98 0 3 0 C3.04942899 4.92959122 3.08573318 9.85903825 3.10986328 14.78881836 C3.11992237 16.46592725 3.13357122 18.14301861 3.15087891 19.82006836 C3.17513152 22.23035002 3.1864839 24.64039986 3.1953125 27.05078125 C3.20563507 27.80087967 3.21595764 28.55097809 3.22659302 29.32380676 C3.227408 33.10300779 3.15057067 34.77414399 1 38 C-0.58645357 34.82709287 -0.12078213 31.41174616 -0.09765625 27.9296875 C-0.0962413 27.13345978 -0.09482635 26.33723206 -0.09336853 25.51687622 C-0.08776345 22.9695462 -0.07521014 20.42230353 -0.0625 17.875 C-0.05748565 16.14974085 -0.05292263 14.42448033 -0.04882812 12.69921875 C-0.03779237 8.46611209 -0.02052436 4.23307086 0 0 Z " fill="#66409E" transform="translate(392,80)"/>
<path d="M0 0 C0.33 0.66 0.66 1.32 1 2 C2.65 2 4.3 2 6 2 C5.67 2.66 5.34 3.32 5 4 C4.34 4 3.68 4 3 4 C2.31379969 5.32338632 1.65213539 6.65949948 1 8 C0.65533691 8.68666748 0.31067383 9.37333496 -0.04443359 10.08081055 C-1.35399829 14.08144036 -1.35562006 17.83401812 -1.4140625 22.01953125 C-1.43342865 22.87810226 -1.4527948 23.73667328 -1.4727478 24.6212616 C-1.53231556 27.35157474 -1.57883734 30.08193057 -1.625 32.8125 C-1.66320079 34.66863773 -1.70225375 36.52475812 -1.7421875 38.38085938 C-1.83799827 42.92043144 -1.92211321 47.46008646 -2 52 C-2.33 52 -2.66 52 -3 52 C-3.04951099 46.25253551 -3.0857723 40.50519573 -3.10986328 34.75756836 C-3.11990853 32.80311927 -3.13354717 30.84868516 -3.15087891 28.89428711 C-3.17519203 26.08183083 -3.18649797 23.26957361 -3.1953125 20.45703125 C-3.20563507 19.58601273 -3.21595764 18.7149942 -3.22659302 17.81758118 C-3.22741117 13.37389294 -2.97534603 10.0704527 -1 6 C-0.62406934 4.0075675 -0.28020455 2.0081326 0 0 Z " fill="#533189" transform="translate(111,65)"/>
<path d="M0 0 C-0.33 0.99 -0.66 1.98 -1 3 C-2.9457026 3.75849423 -4.89633481 4.50798175 -6.875 5.17578125 C-9.27919977 6.02017129 -9.27919977 6.02017129 -12.1875 8.125 C-14.93901488 9.95934326 -16.75599849 10.61835276 -20 11 C-20.33 11.99 -20.66 12.98 -21 14 C-21.66 14 -22.32 14 -23 14 C-21.64660554 10.754502 -20.4600739 9.34315 -17.375 7.67578125 C-16.31539062 7.09280273 -16.31539062 7.09280273 -15.234375 6.49804688 C-14.12835938 5.91120117 -14.12835938 5.91120117 -13 5.3125 C-12.26265625 4.90966797 -11.5253125 4.50683594 -10.765625 4.09179688 C-3.2537165 0 -3.2537165 0 0 0 Z " fill="#552F8D" transform="translate(64,7)"/>
<path d="M0 0 C0.33 0 0.66 0 1 0 C1.1953125 6.0546875 1.1953125 6.0546875 1 8 C0.34 8.66 -0.32 9.32 -1 10 C-1.66 9.34 -2.32 8.68 -3 8 C-3.66 9.32 -4.32 10.64 -5 12 C-5.66 12 -6.32 12 -7 12 C-6.57742724 10.5164999 -6.13643678 9.03823576 -5.6875 7.5625 C-5.32205078 6.32693359 -5.32205078 6.32693359 -4.94921875 5.06640625 C-4.63597656 4.38449219 -4.32273437 3.70257813 -4 3 C-3.01 2.67 -2.02 2.34 -1 2 C-0.67 1.34 -0.34 0.68 0 0 Z " fill="#5B2C9D" transform="translate(13,55)"/>
<path d="M0 0 C7.36259293 -0.22424141 13.87049629 0.09879901 21 2 C16.26840651 5.15439566 11.45897942 3.78396411 6 3 C2.25 1.9375 2.25 1.9375 0 1 C0 0.67 0 0.34 0 0 Z " fill="#502689" transform="translate(402,0)"/>
<path d="M0 0 C0.33 0.66 0.66 1.32 1 2 C0 4 0 4 -2.4453125 5.1171875 C-6.99732363 6.24768697 -11.20802081 6.21637158 -15.875 6.125 C-16.75414062 6.11597656 -17.63328125 6.10695312 -18.5390625 6.09765625 C-20.6928271 6.07424577 -22.84645014 6.0383801 -25 6 C-25 5.67 -25 5.34 -25 5 C-19.39 5 -13.78 5 -8 5 C-8 4.34 -8 3.68 -8 3 C-5.36 2.01 -2.72 1.02 0 0 Z " fill="#7A4DC0" transform="translate(385,130)"/>
<path d="M0 0 C5.28 0 10.56 0 16 0 C13.06030946 1.95979369 11.44977414 2.48320069 8.0625 3.125 C7.20785156 3.29257812 6.35320312 3.46015625 5.47265625 3.6328125 C3 4 3 4 -1 4 C-0.67 2.68 -0.34 1.36 0 0 Z " fill="#51298C" transform="translate(413,496)"/>
<path d="M0 0 C0.66 0.99 1.32 1.98 2 3 C2.99 3.33 3.98 3.66 5 4 C5.4640625 5.175625 5.4640625 5.175625 5.9375 6.375 C7.14208614 9.35103635 8.33158609 10.31000453 11 12 C10.67 12.66 10.34 13.32 10 14 C8.37133456 12.56665422 6.74719006 11.12817021 5.125 9.6875 C4.22007813 8.88699219 3.31515625 8.08648437 2.3828125 7.26171875 C0 5 0 5 -2 2 C-1.34 1.34 -0.68 0.68 0 0 Z " fill="#572E96" transform="translate(27,464)"/>
<path d="M0 0 C-0.66 1.65 -1.32 3.3 -2 5 C-5.63 4.34 -9.26 3.68 -13 3 C-8.28204509 0.64102255 -5.23723208 -0.14547867 0 0 Z " fill="#542A91" transform="translate(86,1)"/>
<path d="M0 0 C1.68609375 0.47566406 1.68609375 0.47566406 3.40625 0.9609375 C8.09969251 2.13429813 12.67988822 2.43659172 17.5 2.625 C18.32242188 2.66367188 19.14484375 2.70234375 19.9921875 2.7421875 C21.9944701 2.83531692 23.99720262 2.91868985 26 3 C26 3.33 26 3.66 26 4 C18.08 4 10.16 4 2 4 C1.34 2.68 0.68 1.36 0 0 Z " fill="#A380DA" transform="translate(117,131)"/>
<path d="M0 0 C0.33 0.66 0.66 1.32 1 2 C2.65 2 4.3 2 6 2 C5.67 2.66 5.34 3.32 5 4 C4.34 4 3.68 4 3 4 C2.731875 4.598125 2.46375 5.19625 2.1875 5.8125 C1 8 1 8 -2 11 C-1.34 7.37 -0.68 3.74 0 0 Z " fill="#5F3E8E" transform="translate(111,65)"/>
<path d="M0 0 C0.66 0 1.32 0 2 0 C2 1.32 2 2.64 2 4 C2.66 4 3.32 4 4 4 C4.33 7.96 4.66 11.92 5 16 C3.26453924 13.39680887 2.34824767 11.47732763 1.375 8.5625 C1.11460938 7.80066406 0.85421875 7.03882813 0.5859375 6.25390625 C0 4 0 4 0 0 Z " fill="#543086" transform="translate(3,422)"/>
<path d="M0 0 C5.75 0.75 5.75 0.75 8 3 C8 4.32 8 5.64 8 7 C8.66 7 9.32 7 10 7 C10 8.65 10 10.3 10 12 C8.46581752 10.04740412 7.12362932 8.28258129 6.125 6 C4.59782499 3.28502221 2.48276822 1.82940816 0 0 Z " fill="#7C619F" transform="translate(382,66)"/>
<path d="M0 0 C0 3.28176588 -0.47835901 5.10888212 -2 8 C-4.125 8.8125 -4.125 8.8125 -6 9 C-6 9.66 -6 10.32 -6 11 C-6.66 11 -7.32 11 -8 11 C-6.63629701 8.00779732 -5.05091917 5.70973471 -2.875 3.25 C-2.33617187 2.63640625 -1.79734375 2.0228125 -1.2421875 1.390625 C-0.62730469 0.70226562 -0.62730469 0.70226562 0 0 Z " fill="#522E8B" transform="translate(29,29)"/>
<path d="M0 0 C5.57142857 5.14285714 5.57142857 5.14285714 6 9 C4.68 8.67 3.36 8.34 2 8 C1.34 5.36 0.68 2.72 0 0 Z " fill="#5A3591" transform="translate(479,39)"/>
<path d="M0 0 C0.61875 0.474375 1.2375 0.94875 1.875 1.4375 C3.90705546 3.02417441 3.90705546 3.02417441 6 4 C5.67 5.98 5.34 7.96 5 10 C1.55783328 7.3401439 1.00495326 4.09711714 0 0 Z " fill="#542B8F" transform="translate(8,438)"/>
<path d="M0 0 C-0.33 0.99 -0.66 1.98 -1 3 C-4.80269732 4.6900877 -7.05272168 5.19873962 -11 4 C-9.73308493 3.32591692 -8.46129251 2.66099503 -7.1875 2 C-6.47980469 1.62875 -5.77210937 1.2575 -5.04296875 0.875 C-3 0 -3 0 0 0 Z " fill="#4D2A81" transform="translate(64,7)"/>
<path d="M0 0 C0.66 0.33 1.32 0.66 2 1 C0.88200014 2.33920838 -0.24461897 3.67122556 -1.375 5 C-2.00148438 5.7425 -2.62796875 6.485 -3.2734375 7.25 C-4.12808594 8.11625 -4.12808594 8.11625 -5 9 C-5.66 9 -6.32 9 -7 9 C-5.44499019 5.18315774 -2.96404505 2.80804268 0 0 Z " fill="#DDD6E1" transform="translate(118,66)"/>
<path d="M0 0 C0.33 0 0.66 0 1 0 C0.67 2.31 0.34 4.62 0 7 C-1.32 7 -2.64 7 -4 7 C-2.92598892 4.08482708 -2.22189824 2.22189824 0 0 Z " fill="#552C8D" transform="translate(20,40)"/>
<path d="M0 0 C-2.97 2.475 -2.97 2.475 -6 5 C-6.33 3.68 -6.66 2.36 -7 1 C-3.375 -1.125 -3.375 -1.125 0 0 Z " fill="#593197" transform="translate(466,476)"/>
<path d="M0 0 C3.77545388 1.09068668 6.47043472 1.9083091 9 5 C4.78087253 4.5205537 2.20336822 3.83374881 -1 1 C-0.67 0.67 -0.34 0.34 0 0 Z " fill="#4F2880" transform="translate(442,9)"/>
<path d="M0 0 C2.0625 0.4375 2.0625 0.4375 4 1 C2.35 2.65 0.7 4.3 -1 6 C-1.042721 4.33388095 -1.04063832 2.66617115 -1 1 C-0.67 0.67 -0.34 0.34 0 0 Z " fill="#572F93" transform="translate(477,459)"/>
<path d="M0 0 C2.64 0.66 5.28 1.32 8 2 C8 2.66 8 3.32 8 4 C6.02 4 4.04 4 2 4 C1.34 2.68 0.68 1.36 0 0 Z " fill="#936ACE" transform="translate(117,131)"/>
<path d="M0 0 C0.93423645 3.01031744 1.04449911 3.86650268 0 7 C-1.32 6.67 -2.64 6.34 -4 6 C-2.68 4.02 -1.36 2.04 0 0 Z " fill="#845AC2" transform="translate(390,123)"/>
<path d="M0 0 C0.6875 1.75 0.6875 1.75 1 4 C-0.4375 6.25 -0.4375 6.25 -2 8 C-2.6875 5.6875 -2.6875 5.6875 -3 3 C-1.5625 1.1875 -1.5625 1.1875 0 0 Z " fill="#F8E9FE" transform="translate(390,119)"/>
</svg>
